<svg version="1.1" xmlns="http://www.w3.org/2000/svg" xmlns:xlink="http://www.w3.org/1999/xlink" width="664.08613" height="538.73222" viewBox="0,0,664.08613,538.73222"><defs><linearGradient x1="308.86472" y1="-38.13579" x2="225.18934" y2="386.12385" gradientUnits="userSpaceOnUse" id="color-1"><stop offset="0" stop-color="#ed6802"/><stop offset="1" stop-color="#ad4c00"/></linearGradient><linearGradient x1="44.73971" y1="75.12177" x2="411.23627" y2="293.11206" gradientUnits="userSpaceOnUse" id="color-2"><stop offset="0" stop-color="#b3b1b3"/><stop offset="1" stop-color="#737373"/></linearGradient><radialGradient cx="214.47922" cy="177.10491" r="195.91335" gradientUnits="userSpaceOnUse" id="color-3"><stop offset="0" stop-color="#000000"/><stop offset="1" stop-color="#5a5a5a"/></radialGradient></defs><g transform="translate(65.01604,95.37208)"><g data-paper-data="{&quot;isPaintingLayer&quot;:true}" fill-rule="nonzero" stroke-linejoin="miter" stroke-miterlimit="10" stroke-dasharray="" stroke-dashoffset="0" style="mix-blend-mode: normal"><path d="M-65.01604,328.88756l83.67538,-424.25963l580.41075,114.47258l-83.67539,424.25964z" fill="url(#color-1)" stroke="none" stroke-width="0" stroke-linecap="butt"/><path d="M-7.45515,162.87446l104.38973,-175.50539l366.49656,217.99031l-104.38972,175.50539z" fill="url(#color-2)" stroke="none" stroke-width="0" stroke-linecap="butt"/><path d="M18.56587,159.42896l86.86319,-146.03887l304.96351,181.39077l-86.86318,146.03886z" fill="url(#color-3)" stroke="none" stroke-width="0" stroke-linecap="butt"/><text transform="translate(84.80685,174.03994) rotate(-56.75441) scale(0.5,0.5)" font-size="40" xml:space="preserve" fill="#ffffff" fill-rule="nonzero" stroke="none" stroke-width="1" stroke-linecap="butt" stroke-linejoin="miter" stroke-miterlimit="10" stroke-dasharray="" stroke-dashoffset="0" font-family="Pixel" font-weight="normal" text-anchor="start" style="mix-blend-mode: normal"><tspan x="0" dy="0">President</tspan></text><path d="M233.994,169.64596c0,26.50235 -21.84797,47.98676 -48.7988,47.98676c-26.95083,0 -48.7988,-21.48441 -48.7988,-47.98676c0,-26.50235 21.84797,-47.98676 48.7988,-47.98676c26.95083,0 48.7988,21.48441 48.7988,47.98676z" fill="#717171" stroke="none" stroke-width="0" stroke-linecap="butt"/><path d="M311.79766,261.79282c14.50555,0 26.26462,12.80898 26.26462,28.60967c0,15.80069 -11.75907,28.60968 -26.26462,28.60968c-14.50555,0 -26.26462,-12.80899 -26.26462,-28.60968c0,-15.80068 11.75907,-28.60967 26.26462,-28.60967z" fill="#00ff3a" stroke="none" stroke-width="0" stroke-linecap="butt"/><path d="M362.18055,174.21174c14.97409,0 27.11298,13.22272 27.11298,29.53378c0,16.31106 -12.13889,29.53378 -27.11298,29.53378c-14.97409,0 -27.11298,-13.22272 -27.11298,-29.53378c0,-16.31106 12.13889,-29.53378 27.11298,-29.53378z" fill="#ff0000" stroke="none" stroke-width="0" stroke-linecap="butt"/><path d="M404.87351,282.97749c0,12.70255 -9.17816,23 -20.5,23c-11.32184,0 -20.5,-10.29745 -20.5,-23c0,-12.70255 9.17816,-23 20.5,-23c11.32184,0 20.5,10.29745 20.5,23z" fill="#3b3b3b" stroke="none" stroke-width="0" stroke-linecap="butt"/><path d="M326.8735,288.72749l-1.5,7l-27.5,-5.75l-0.25,-6" fill="none" stroke="#ffffff" stroke-width="4.5" stroke-linecap="round"/><path d="M353.87351,189.9775l7.25,-4.25l15.25,23.75l-5.25,4.25" fill="none" stroke="#ffffff" stroke-width="4.5" stroke-linecap="round"/><path d="M294.96853,270.81185l15.0965,0.46587l-2.67271,19.83641l-11.61269,-0.35836z" fill="#ffffff" stroke="none" stroke-width="0" stroke-linecap="butt"/><path d="M319.15108,277.34743l12.30536,1.31531l-3.41183,16.04134l-9.46566,-1.01178z" fill="#ffffff" stroke="none" stroke-width="0" stroke-linecap="butt"/><path d="M348.59956,202.69614l-6.48487,-13.75679l19.33292,-6.63886l4.98836,10.58214z" fill="#ffffff" stroke="none" stroke-width="0" stroke-linecap="butt"/><path d="M365.29905,220.27823l-6.9538,-10.91002l15.32963,-7.67863l5.34907,8.39233z" fill="#ffffff" stroke="none" stroke-width="0" stroke-linecap="butt"/></g></g></svg>